<svg viewBox="0 0 140 120" xmlns="http://www.w3.org/2000/svg" role="img" aria-label="Cloud automation illustration">
  <defs>
    <linearGradient id="cloudGrad" x1="0" x2="1" y1="0" y2="1">
      <stop offset="0%" stop-color="#60a5fa" />
      <stop offset="100%" stop-color="#38bdf8" />
    </linearGradient>
  </defs>
  <rect width="140" height="120" rx="24" fill="#eff6ff" />
  <path d="M40 55c0-12.7 10.3-23 23-23 3.5 0 6.8.8 9.7 2.3 4.8-7.4 13.2-12.3 22.8-12.3 14.6 0 26.5 11.9 26.5 26.5 0 .7 0 1.3-.1 2 6.7.8 11.8 6.7 11.8 13.6 0 7.6-6.2 13.8-13.8 13.8H41.5C33.4 96 27 89.6 27 81.5c0-7.5 5.7-13.5 12.7-14.4z" fill="url(#cloudGrad)"/>
  <path d="M54 74h32" stroke="#fff" stroke-width="6" stroke-linecap="round"/>
  <path d="M68 66v16" stroke="#fff" stroke-width="6" stroke-linecap="round"/>
</svg>
